<svg xmlns="http://www.w3.org/2000/svg" id="Layer_2" viewBox="0 0 4133.46 252.42"><defs><style>.cls-4{stroke-width:0;fill:#fff}</style></defs><g id="Clouds"><path fill="#fff" stroke-width="0" d="M864.97 82.04a8.884 8.884 0 0 0 1.18-4.43c0-4.94-4.01-8.95-8.95-8.95-.98 0-1.92.16-2.81.46.4-1.38.63-2.84.63-4.35 0-8.58-6.96-15.54-15.54-15.54-1.16 0-2.29.14-3.38.38v-.32c0-17.57-14.24-31.8-31.8-31.8-9.74 0-18.46 4.39-24.29 11.28-4.2-4.29-10.06-6.96-16.54-6.96-12.35 0-22.41 9.67-23.1 21.84-5.5 1.01-9.71 5.6-10.22 11.26-5.05-4.8-11.86-7.77-19.38-7.77-15.55 0-28.16 12.61-28.16 28.16 0 3.11.52 6.1 1.46 8.9-6.54.01-11.83 5.32-11.83 11.86s5.31 11.86 11.86 11.86h179.82c7.16 0 12.96-5.8 12.96-12.96s-5.24-12.36-11.89-12.9z" opacity=".45"/><path d="M10.02 171.54c1.12 0 2.19.19 3.19.53-.06-.68-.1-1.37-.1-2.07 0-12.56 10.18-22.75 22.75-22.75 1.27 0 2.52.11 3.73.31 1.94-7.06 7.97-12.41 15.39-13.36-.14-.69-.21-1.4-.21-2.13 0-5.92 4.8-10.72 10.72-10.72.19 0 .38.02.57.03-.03-.35-.07-.7-.07-1.05 0-6.34 5.14-11.48 11.48-11.48.7 0 1.38.07 2.04.19 5.29-5.89 12.97-9.6 21.51-9.6a28.8 28.8 0 0 1 18.97 7.1c3.08-1.89 6.68-3 10.55-3 6.1 0 11.56 2.71 15.26 6.98a26.953 26.953 0 0 1 17.53-6.46c12.4 0 22.84 8.33 26.05 19.7 3-2.2 6.68-3.51 10.69-3.51 10.01 0 18.13 8.12 18.13 18.13 0 2.32-.45 4.53-1.25 6.57 6.16.12 11.27 4.49 12.54 10.3 2.71-2.17 6.14-3.48 9.88-3.48 8.73 0 15.81 7.08 15.81 15.81 0 2.4-.55 4.66-1.5 6.7.2-.01.4-.03.6-.03 4.79 0 8.67 3.88 8.67 8.67s-3.88 8.67-8.67 8.67H10.02C4.48 191.59 0 187.1 0 181.57s4.49-10.02 10.02-10.02z" class="cls-4"/><path fill="#d0e2ff" stroke-width="0" d="M363.19 227.67c-.73 0-1.42.19-2.03.5 0-.11.02-.21.02-.32 0-4.96-4.02-8.97-8.97-8.97-1 0-1.96.17-2.85.47.06-.61.09-1.23.09-1.85 0-11.25-9.12-20.36-20.36-20.36-1.14 0-2.25.1-3.34.28-1.74-6.32-7.13-11.11-13.77-11.96.12-.62.19-1.25.19-1.91 0-5.3-4.3-9.59-9.59-9.59-.17 0-.34.02-.51.03.03-.31.06-.62.06-.94 0-5.68-4.6-10.28-10.28-10.28-.62 0-1.23.06-1.83.17-4.74-5.27-11.61-8.59-19.26-8.59-6.5 0-12.43 2.4-16.98 6.35a17.985 17.985 0 0 0-9.45-2.68c-5.46 0-10.34 2.43-13.66 6.25-4.23-3.6-9.7-5.78-15.69-5.78-11.09 0-20.44 7.46-23.32 17.63a16.079 16.079 0 0 0-9.56-3.14c-8.47 0-15.41 6.49-16.15 14.76-5.4.3-9.95 3.77-11.82 8.58-1.9-1.66-4.37-2.66-7.09-2.66-5.97 0-10.81 4.84-10.81 10.81 0 .44.03.87.09 1.3h-.15c-7.46 0-13.51 6.05-13.51 13.51 0 .57.05 1.12.11 1.67-4.28.13-7.72 3.63-7.72 7.94s3.56 7.95 7.95 7.95h240.19c2.53 0 4.57-2.05 4.57-4.57s-2.05-4.57-4.57-4.57z"/><path d="M4132.59 103.72c-2.96-4.8-8.26-8.01-14.32-8.01-1.64 0-3.21.25-4.71.68.32-1.02.41-2.15.19-3.32-.49-2.62-2.57-4.75-5.18-5.32a6.746 6.746 0 0 0-4.27.46c-2.31-7.79-9.51-13.47-18.04-13.47-2.99 0-5.81.72-8.32 1.96a9.78 9.78 0 0 0-8.16-4.39c-.93 0-1.83.14-2.68.38.33-1.09.52-2.25.52-3.45 0-6.51-5.27-11.79-11.77-11.81-2.11-7.52-9-13.03-17.2-13.03-5.21 0-9.89 2.24-13.15 5.8-2.63-3.35-6.67-5.52-11.24-5.61 0-.28.02-.56.02-.85 0-14.12-11.89-25.46-26.21-24.55-10.14.65-18.73 7.6-21.78 16.98-7.24.54-12.96 6.58-12.96 13.96 0 .61.05 1.21.13 1.8a13.64 13.64 0 0 0-7.61 9.25c-3.5-6.24-10.17-10.47-17.83-10.47-6.75 0-12.71 3.28-16.43 8.32-3.9-5.34-10.19-8.82-17.3-8.82-10.09 0-18.53 6.98-20.81 16.37-2.32-.45-4.85-.32-7.5.87-2.65 1.19-4.81 3.29-6.18 5.85-1.68 3.15-1.78 6.09-1.14 8.74a9.756 9.756 0 0 0-6.48 3.68c-1.35-.6-2.83-.94-4.4-.94-5.35 0-9.78 3.86-10.7 8.94a9.812 9.812 0 0 0-4.41-.71c-4.94.35-8.93 4.55-9.04 9.5-.13 5.49 4.29 9.98 9.75 9.98h294.38c4.51 0 7.22-4.95 4.86-8.79z" class="cls-4"/><path fill="#fff" stroke-width="0" d="M3357.19 73.33c-.73 0-1.42.19-2.03.5 0-.11.02-.21.02-.32 0-4.96-4.02-8.97-8.97-8.97-1 0-1.96.17-2.85.47.06-.61.09-1.23.09-1.85 0-11.25-9.12-20.36-20.36-20.36-1.14 0-2.25.1-3.34.28-1.74-6.32-7.13-11.11-13.77-11.96.12-.62.19-1.25.19-1.91 0-5.3-4.3-9.59-9.59-9.59-.17 0-.34.02-.51.03.03-.31.06-.62.06-.94 0-5.68-4.6-10.28-10.28-10.28-.62 0-1.23.06-1.83.17-4.74-5.27-11.61-8.59-19.26-8.59-6.5 0-12.43 2.4-16.98 6.35a17.985 17.985 0 0 0-9.45-2.68c-5.46 0-10.34 2.43-13.66 6.25-4.23-3.6-9.7-5.78-15.69-5.78-11.09 0-20.44 7.46-23.32 17.63a16.079 16.079 0 0 0-9.56-3.14c-8.47 0-15.41 6.49-16.15 14.76-5.4.3-9.95 3.77-11.82 8.58-1.9-1.66-4.37-2.66-7.09-2.66-5.97 0-10.81 4.84-10.81 10.81 0 .44.03.87.09 1.3h-.15c-7.46 0-13.51 6.05-13.51 13.51 0 .57.05 1.12.11 1.67-4.28.13-7.72 3.63-7.72 7.94s3.56 7.95 7.95 7.95h240.19c2.53 0 4.57-2.05 4.57-4.57s-2.05-4.57-4.57-4.57z" opacity=".3"/><path d="M422.84 245.44c-2.35-3.82-6.57-6.37-11.38-6.37-1.3 0-2.55.19-3.74.54.26-.81.33-1.71.15-2.64-.39-2.09-2.05-3.78-4.12-4.23a5.367 5.367 0 0 0-3.39.37c-1.84-6.19-7.56-10.71-14.34-10.71-2.38 0-4.62.57-6.62 1.56a7.776 7.776 0 0 0-6.49-3.49c-.74 0-1.45.11-2.13.3.26-.87.41-1.79.41-2.74 0-5.18-4.19-9.37-9.36-9.39-1.68-5.97-7.16-10.36-13.67-10.36-4.14 0-7.86 1.78-10.46 4.61-2.09-2.66-5.3-4.39-8.93-4.46 0-.22.02-.45.02-.68 0-11.22-9.45-20.24-20.83-19.51-8.06.51-14.89 6.04-17.31 13.5-5.76.43-10.3 5.23-10.3 11.1 0 .49.04.96.1 1.43-3 1.37-5.27 4.07-6.05 7.35-2.78-4.96-8.08-8.32-14.18-8.32-5.36 0-10.1 2.61-13.06 6.61-3.1-4.24-8.1-7.01-13.76-7.01-8.02 0-14.73 5.55-16.54 13.02-1.84-.36-3.85-.25-5.96.69-2.1.95-3.83 2.61-4.91 4.65-1.33 2.5-1.41 4.84-.91 6.95a7.786 7.786 0 0 0-5.15 2.92 8.673 8.673 0 0 0-3.5-.74c-4.25 0-7.78 3.07-8.5 7.11a7.733 7.733 0 0 0-3.51-.56c-3.93.28-7.1 3.61-7.19 7.55-.1 4.36 3.41 7.93 7.75 7.93h234c3.59 0 5.74-3.93 3.86-6.99zm68.38-132.37c1.12 0 2.19.19 3.19.53-.06-.68-.1-1.37-.1-2.07 0-12.56 10.18-22.75 22.75-22.75 1.27 0 2.52.11 3.73.31 1.94-7.06 7.97-12.41 15.39-13.36-.14-.69-.21-1.4-.21-2.13 0-5.92 4.8-10.72 10.72-10.72.19 0 .38.02.57.03-.03-.35-.07-.7-.07-1.05 0-6.34 5.14-11.48 11.48-11.48.7 0 1.38.07 2.04.19 5.29-5.89 12.97-9.6 21.51-9.6a28.8 28.8 0 0 1 18.97 7.1c3.08-1.89 6.68-3 10.55-3 6.1 0 11.56 2.71 15.26 6.98a26.953 26.953 0 0 1 17.53-6.46c12.4 0 22.84 8.33 26.05 19.7 3-2.2 6.68-3.51 10.69-3.51 10.01 0 18.13 8.12 18.13 18.13 0 2.32-.45 4.53-1.25 6.57 6.16.12 11.27 4.49 12.54 10.3 2.71-2.17 6.14-3.48 9.88-3.48 8.73 0 15.81 7.08 15.81 15.81 0 2.4-.55 4.66-1.5 6.7.2-.01.4-.03.6-.03 4.79 0 8.67 3.88 8.67 8.67s-3.88 8.67-8.67 8.67H491.22c-5.54 0-10.02-4.49-10.02-10.02 0-5.54 4.49-10.02 10.02-10.02zm1044.66-16.03c-.17 0-.34.01-.51.03.81-1.72 1.27-3.64 1.27-5.67 0-7.39-5.99-13.38-13.38-13.38-3.17 0-6.07 1.11-8.37 2.95-1.07-4.92-5.4-8.61-10.61-8.72.67-1.73 1.05-3.59 1.05-5.56 0-8.47-6.87-15.34-15.34-15.34-3.39 0-6.51 1.11-9.04 2.97-2.72-9.62-11.56-16.67-22.05-16.67-5.66 0-10.84 2.06-14.84 5.47-3.14-3.61-7.76-5.91-12.92-5.91-3.28 0-6.33.94-8.93 2.54-4.3-3.74-9.91-6.01-16.06-6.01-7.23 0-13.73 3.14-18.21 8.12a9.85 9.85 0 0 0-1.73-.16c-5.37 0-9.72 4.35-9.72 9.72 0 .3.03.6.06.89-.16 0-.32-.02-.48-.02-4.34 0-7.97 3.05-8.86 7.12-3.17-3.02-7.46-4.89-12.19-4.89-4.37 0-8.37 1.59-11.46 4.22a13.174 13.174 0 0 0-9.98-4.56c-2.53 0-4.89.72-6.9 1.96a18.81 18.81 0 0 0-12.4-4.64c-5.58 0-10.6 2.42-14.06 6.27-.43-.08-.88-.13-1.34-.13-4.15 0-7.51 3.36-7.51 7.51 0 .23.02.46.05.69-.12 0-.25-.02-.37-.02a7.012 7.012 0 0 0-6.87 8.4c-4.85.62-8.79 4.12-10.06 8.73-.79-.13-1.61-.2-2.44-.2-8.21 0-14.87 6.66-14.87 14.87 0 .46.03.91.07 1.35a6.547 6.547 0 0 0-8.63 6.21c0 3.62 2.93 6.55 6.55 6.55h281.07c4.05 0 7.34-3.29 7.34-7.34s-3.29-7.34-7.34-7.34zm1127.45 40.18c.53-.93.84-2 .84-3.15a6.363 6.363 0 0 0-8.36-6.04c.29-.98.45-2.02.45-3.1 0-6.1-4.95-11.05-11.05-11.05-.83 0-1.63.1-2.4.27v-.23c0-12.48-10.12-22.6-22.6-22.6-6.92 0-13.12 3.12-17.26 8.02-2.99-3.05-7.15-4.95-11.76-4.95-8.77 0-15.93 6.87-16.42 15.52-3.91.72-6.9 3.98-7.26 8-3.59-3.41-8.43-5.52-13.78-5.52-11.06 0-20.02 8.96-20.02 20.02 0 2.21.37 4.33 1.04 6.32a8.431 8.431 0 0 0 .02 16.86h127.81c5.09 0 9.21-4.12 9.21-9.21s-3.72-8.79-8.45-9.17zm929.46-50.04a8.739 8.739 0 0 0 1.16-4.34c0-4.84-3.92-8.77-8.77-8.77-.96 0-1.89.16-2.75.45.4-1.35.62-2.78.62-4.27 0-8.41-6.82-15.22-15.22-15.22-1.14 0-2.24.13-3.31.37v-.32c0-17.2-13.95-31.15-31.15-31.15-9.54 0-18.08 4.29-23.79 11.05-4.12-4.21-9.85-6.82-16.2-6.82-12.09 0-21.95 9.47-22.62 21.39-5.38.99-9.51 5.48-10.01 11.03-4.95-4.7-11.62-7.61-18.99-7.61-2.54 0-5 .35-7.34.99-2.28-7.41-9.17-12.8-17.33-12.8-4 0-7.69 1.31-10.69 3.51-3.21-11.37-13.65-19.7-26.05-19.7a26.9 26.9 0 0 0-17.53 6.46c-3.71-4.27-9.16-6.98-15.26-6.98-3.87 0-7.48 1.11-10.55 3a28.8 28.8 0 0 0-18.97-7.1c-8.54 0-16.22 3.71-21.51 9.6-.66-.12-1.34-.19-2.04-.19-6.34 0-11.48 5.14-11.48 11.48 0 .36.04.71.07 1.05-.19 0-.38-.03-.57-.03-5.92 0-10.72 4.8-10.72 10.72 0 .73.07 1.44.21 2.13-7.42.95-13.44 6.3-15.39 13.36-1.21-.2-2.46-.31-3.73-.31-12.56 0-22.75 10.18-22.75 22.75 0 .7.04 1.39.1 2.07-1-.34-2.07-.53-3.19-.53-5.54 0-10.02 4.49-10.02 10.02s4.49 10.02 10.02 10.02h364.71c7.01 0 12.69-5.68 12.69-12.69s-5.13-12.11-11.65-12.64zM2331 128.95c.77-1.35 1.22-2.9 1.22-4.56 0-5.09-4.13-9.22-9.22-9.22-1.01 0-1.98.17-2.9.47.42-1.43.65-2.93.65-4.49 0-8.85-7.17-16.02-16.02-16.02-1.2 0-2.36.14-3.48.39v-.33c0-18.1-14.67-32.78-32.78-32.78-10.04 0-19.02 4.52-25.03 11.63-4.33-4.42-10.37-7.18-17.05-7.18-12.72 0-23.09 9.96-23.8 22.51-5.66 1.04-10 5.77-10.53 11.61-5.21-4.95-12.23-8-19.98-8-5.26 0-10.19 1.42-14.44 3.87-3.14-4.05-8.04-6.67-13.56-6.67-5.01 0-9.5 2.16-12.64 5.57a14.005 14.005 0 0 0-10.8-5.39c0-.27.02-.54.02-.82 0-13.56-11.43-24.46-25.18-23.58-8.74.56-16.26 5.99-19.84 13.61a20.425 20.425 0 0 0-9.78-2.47c-6.01 0-11.4 2.59-15.16 6.69-3.03-3.86-7.69-6.37-12.95-6.46.01-.33.02-.65.02-.98 0-16.27-13.71-29.34-30.21-28.29-11.69.74-21.59 8.76-25.1 19.57-8.35.63-14.93 7.58-14.93 16.09 0 .71.06 1.4.15 2.08-4.35 1.99-7.64 5.91-8.77 10.66-4.03-7.19-11.72-12.06-20.55-12.06-7.78 0-14.65 3.78-18.94 9.59-4.49-6.15-11.74-10.17-19.94-10.17-11.63 0-21.36 8.05-23.99 18.87-2.67-.52-5.58-.37-8.64 1.01-3.05 1.37-5.55 3.79-7.12 6.74-1.93 3.63-2.05 7.01-1.32 10.07-3.03.38-5.68 1.95-7.47 4.24-1.55-.69-3.27-1.08-5.07-1.08-6.16 0-11.28 4.45-12.33 10.31a11.2 11.2 0 0 0-5.09-.82c-5.69.41-10.29 5.24-10.42 10.94-.14 6.33 4.94 11.5 11.23 11.5h500.64c7.37 0 13.35-5.98 13.35-13.35s-5.4-12.74-12.26-13.3z" class="cls-4"/></g></svg>